<svg width="40" height="39" viewBox="0 0 40 39" fill="none" xmlns="http://www.w3.org/2000/svg">
<path d="M14.5152 0C12.9718 0 11.5496 0.83679 10.8 2.18602L9.5145 4.5H5.75C2.57436 4.5 0 7.0744 0 10.25V27.25C0 30.4256 2.57436 33 5.75 33H16.9963C16.6642 32.2037 16.4091 31.3672 16.2402 30.5H5.75C3.95507 30.5 2.5 29.0449 2.5 27.25V10.25C2.5 8.4551 3.95507 7 5.75 7H10.9855L12.9854 3.4001C13.2941 2.84456 13.8797 2.5 14.5152 2.5H21.4848C22.1203 2.5 22.7059 2.84456 23.0146 3.4001L25.0145 7H30.25C32.0449 7 33.5 8.4551 33.5 10.25V15.7999C34.3823 16.1255 35.2196 16.544 36 17.0436V10.25C36 7.0744 33.4256 4.5 30.25 4.5H26.4855L25.2 2.18602C24.4504 0.83679 23.0282 0 21.4848 0H14.5152Z" fill="white"/>
<path d="M18 10C21.5278 10 24.5222 12.2834 25.586 15.4529C24.7711 15.6741 23.988 15.9726 23.2451 16.34C22.5411 14.1138 20.459 12.5 18 12.5C14.9624 12.5 12.5 14.9624 12.5 18C12.5 20.6415 14.3622 22.8481 16.8454 23.3786C16.5516 24.151 16.3292 24.9587 16.1865 25.7936C12.6418 24.972 10 21.7945 10 18C10 13.5817 13.5817 10 18 10Z" fill="white"/>
<path d="M40 28C40 34.0751 35.0751 39 29 39C22.9249 39 18 34.0751 18 28C18 21.9249 22.9249 17 29 17C35.0751 17 40 21.9249 40 28ZM30 22C30 21.4477 29.5523 21 29 21C28.4477 21 28 21.4477 28 22V27H23C22.4477 27 22 27.4477 22 28C22 28.5523 22.4477 29 23 29H28V34C28 34.5523 28.4477 35 29 35C29.5523 35 30 34.5523 30 34V29H35C35.5523 29 36 28.5523 36 28C36 27.4477 35.5523 27 35 27H30V22Z" fill="white"/>
</svg>
