<svg width="23" height="23" viewBox="0 0 23 23" fill="none" xmlns="http://www.w3.org/2000/svg">
<mask id="mask0_303_6" style="mask-type:alpha" maskUnits="userSpaceOnUse" x="0" y="0" width="23" height="23">
<rect x="0.671875" y="0.555908" width="22" height="22" fill="#D9D9D9"/>
</mask>
<g mask="url(#mask0_303_6)">
<path d="M9.15114 20.7226L8.78447 17.7892C8.58586 17.7128 8.39886 17.6212 8.22347 17.5142C8.04747 17.4073 7.87544 17.2927 7.70739 17.1705L4.98031 18.3163L2.45947 13.9621L4.81989 12.1746C4.80461 12.0677 4.79697 11.9644 4.79697 11.8648C4.79697 11.7658 4.79697 11.6628 4.79697 11.5559C4.79697 11.4489 4.79697 11.3457 4.79697 11.2461C4.79697 11.1471 4.80461 11.0441 4.81989 10.9371L2.45947 9.14964L4.98031 4.79547L7.70739 5.9413C7.87544 5.81908 8.05114 5.7045 8.23447 5.59755C8.41781 5.49061 8.60114 5.39894 8.78447 5.32255L9.15114 2.38922H14.1928L14.5595 5.32255C14.7581 5.39894 14.9454 5.49061 15.1214 5.59755C15.2968 5.7045 15.4685 5.81908 15.6366 5.9413L18.3636 4.79547L20.8845 9.14964L18.5241 10.9371C18.5393 11.0441 18.547 11.1471 18.547 11.2461C18.547 11.3457 18.547 11.4489 18.547 11.5559C18.547 11.6628 18.547 11.7658 18.547 11.8648C18.547 11.9644 18.5317 12.0677 18.5011 12.1746L20.8616 13.9621L18.3407 18.3163L15.6366 17.1705C15.4685 17.2927 15.2928 17.4073 15.1095 17.5142C14.9261 17.6212 14.7428 17.7128 14.5595 17.7892L14.1928 20.7226H9.15114ZM11.7178 14.7642C12.6039 14.7642 13.3602 14.451 13.9866 13.8246C14.6129 13.1982 14.9261 12.442 14.9261 11.5559C14.9261 10.6698 14.6129 9.91353 13.9866 9.28714C13.3602 8.66075 12.6039 8.34755 11.7178 8.34755C10.8164 8.34755 10.0562 8.66075 9.43714 9.28714C8.8187 9.91353 8.50947 10.6698 8.50947 11.5559C8.50947 12.442 8.8187 13.1982 9.43714 13.8246C10.0562 14.451 10.8164 14.7642 11.7178 14.7642ZM11.7178 12.9309C11.3359 12.9309 11.0114 12.7971 10.7443 12.5294C10.4766 12.2623 10.3428 11.9378 10.3428 11.5559C10.3428 11.1739 10.4766 10.8494 10.7443 10.5824C11.0114 10.3147 11.3359 10.1809 11.7178 10.1809C12.0998 10.1809 12.4246 10.3147 12.6922 10.5824C12.9593 10.8494 13.0928 11.1739 13.0928 11.5559C13.0928 11.9378 12.9593 12.2623 12.6922 12.5294C12.4246 12.7971 12.0998 12.9309 11.7178 12.9309ZM10.7553 18.8892H12.5657L12.8866 16.4601C13.3602 16.3378 13.7996 16.1582 14.2047 15.9211C14.6093 15.6846 14.9796 15.3982 15.3157 15.0621L17.5845 16.0017L18.4782 14.4434L16.5074 12.9538C16.5838 12.7399 16.6373 12.5144 16.6678 12.2773C16.6984 12.0408 16.7136 11.8003 16.7136 11.5559C16.7136 11.3114 16.6984 11.0707 16.6678 10.8336C16.6373 10.5971 16.5838 10.3719 16.5074 10.158L18.4782 8.66839L17.5845 7.11005L15.3157 8.07255C14.9796 7.72117 14.6093 7.42692 14.2047 7.1898C13.7996 6.9533 13.3602 6.77394 12.8866 6.65172L12.5886 4.22255H10.7782L10.4574 6.65172C9.98378 6.77394 9.54469 6.9533 9.14014 7.1898C8.73497 7.42692 8.36433 7.71353 8.02822 8.04964L5.75947 7.11005L4.86572 8.66839L6.83656 10.1351C6.76017 10.3642 6.7067 10.5934 6.67614 10.8226C6.64558 11.0517 6.63031 11.2962 6.63031 11.5559C6.63031 11.8003 6.64558 12.0371 6.67614 12.2663C6.7067 12.4955 6.76017 12.7246 6.83656 12.9538L4.86572 14.4434L5.75947 16.0017L8.02822 15.0392C8.36433 15.3906 8.73497 15.6846 9.14014 15.9211C9.54469 16.1582 9.98378 16.3378 10.4574 16.4601L10.7553 18.8892Z" fill="#246BFD"/>
</g>
</svg>
