<svg width="20" height="19" viewBox="0 0 20 19" fill="none" xmlns="http://www.w3.org/2000/svg">
<path d="M2 10.999L11 11C11.5046 10.9998 11.9906 11.1904 12.3605 11.5335C12.7305 11.8766 12.9572 12.3468 12.995 12.85L13 13V14.5C12.999 18 9.284 19 6.5 19C3.778 19 0.165 18.044 0.00500011 14.73L0 14.5V12.999C0 11.945 0.816 11.081 1.85 11.004L2 11V10.999ZM13.22 11H18C18.5044 11.0001 18.9901 11.1908 19.3599 11.5338C19.7297 11.8769 19.9562 12.347 19.994 12.85L20 13V14C19.999 17.062 17.142 18 15 18C14.2745 18.0017 13.5529 17.8931 12.86 17.678C13.196 17.292 13.467 16.851 13.662 16.351C14.1013 16.4492 14.5499 16.4991 15 16.5L15.267 16.494C16.252 16.451 18.353 16.131 18.493 14.205L18.5 14V13C18.4998 12.883 18.4588 12.7698 18.3839 12.6799C18.309 12.5901 18.205 12.5292 18.09 12.508L18 12.5H13.949C13.8663 12.0105 13.6617 11.5496 13.354 11.16L13.22 11H18H13.22ZM2 12.499L1.9 12.509C1.80402 12.529 1.71584 12.5762 1.646 12.645C1.57718 12.7144 1.52994 12.8023 1.51 12.898L1.5 12.999V14.5C1.5 15.509 1.95 16.222 2.917 16.742C3.743 17.187 4.92 17.456 6.183 17.495L6.5 17.5L6.817 17.495C8.08 17.456 9.256 17.187 10.083 16.742C10.989 16.254 11.442 15.597 11.495 14.685L11.5 14.499V13C11.4998 12.883 11.4588 12.7698 11.3839 12.6799C11.309 12.5901 11.205 12.5292 11.09 12.508L11 12.5L2 12.499ZM6.5 0C7.69347 0 8.83807 0.474106 9.68198 1.31802C10.5259 2.16193 11 3.30653 11 4.5C11 5.69347 10.5259 6.83807 9.68198 7.68198C8.83807 8.52589 7.69347 9 6.5 9C5.30653 9 4.16193 8.52589 3.31802 7.68198C2.47411 6.83807 2 5.69347 2 4.5C2 3.30653 2.47411 2.16193 3.31802 1.31802C4.16193 0.474106 5.30653 0 6.5 0ZM15.5 2C16.4283 2 17.3185 2.36875 17.9749 3.02513C18.6313 3.6815 19 4.57174 19 5.5C19 6.42826 18.6313 7.3185 17.9749 7.97487C17.3185 8.63125 16.4283 9 15.5 9C14.5717 9 13.6815 8.63125 13.0251 7.97487C12.3687 7.3185 12 6.42826 12 5.5C12 4.57174 12.3687 3.6815 13.0251 3.02513C13.6815 2.36875 14.5717 2 15.5 2ZM6.5 1.5C4.846 1.5 3.5 2.846 3.5 4.5C3.5 6.154 4.846 7.5 6.5 7.5C8.154 7.5 9.5 6.154 9.5 4.5C9.5 2.846 8.154 1.5 6.5 1.5ZM15.5 3.5C14.397 3.5 13.5 4.397 13.5 5.5C13.5 6.603 14.397 7.5 15.5 7.5C16.603 7.5 17.5 6.603 17.5 5.5C17.5 4.397 16.603 3.5 15.5 3.5Z" fill="#246BFD"/>
</svg>
