<svg width="100" height="96" viewBox="0 0 100 96" fill="none" xmlns="http://www.w3.org/2000/svg">
<path fill-rule="evenodd" clip-rule="evenodd" d="M51.4 84.625C54.9183 84.3805 58.4064 83.8114 61.82 82.925C66.0326 84.2105 70.4859 84.5015 74.83 83.775C75.0019 83.7472 75.1759 83.7339 75.35 83.735C76.9 83.735 78.935 84.635 81.9 86.535V83.41C81.9006 82.8694 82.0449 82.3386 82.3182 81.8721C82.5914 81.4055 82.9838 81.02 83.455 80.755C84.745 80.025 85.945 79.185 87.04 78.26C91.36 74.6 93.8 69.72 93.8 64.55C93.8 62.815 93.525 61.13 93.005 59.52C94.31 57.085 95.365 54.525 96.14 51.87C98.6458 55.625 99.9884 60.0357 100 64.55C100 71.575 96.73 78.125 91.075 82.915C90.1311 83.7139 89.1374 84.452 88.1 85.125V92.43C88.1 94.945 85.2 96.39 83.155 94.895C81.2212 93.4494 79.2189 92.0978 77.155 90.845C76.564 90.4913 75.9492 90.1789 75.315 89.91C73.615 90.165 71.875 90.295 70.12 90.295C63.06 90.295 56.54 88.18 51.405 84.625H51.4ZM14.07 70.015C5.15 62.45 0 52.145 0 41.1C0 18.535 21.29 0.5 47.285 0.5C73.285 0.5 94.575 18.535 94.575 41.1C94.575 63.67 73.28 81.705 47.285 81.705C44.365 81.705 41.475 81.48 38.645 81.03C37.42 81.32 32.525 84.23 25.47 89.38C22.915 91.25 19.29 89.445 19.29 86.3V73.84C17.463 72.6882 15.7188 71.4101 14.07 70.015ZM38.815 73.345C39.03 73.345 39.25 73.36 39.465 73.395C42.015 73.825 44.635 74.045 47.285 74.045C69.245 74.045 86.82 59.155 86.82 41.1C86.82 23.05 69.245 8.16 47.285 8.16C25.335 8.16 7.75 23.05 7.75 41.1C7.75 49.83 11.855 58.05 19.115 64.2C20.94 65.74 22.945 67.14 25.095 68.36C26.3 69.04 27.045 70.31 27.045 71.68V78.865C32.625 75.12 36.295 73.345 38.815 73.345ZM27.13 48.765C23.705 48.765 20.93 46.015 20.93 42.635C20.93 39.25 23.705 36.505 27.13 36.505C30.555 36.505 33.33 39.25 33.33 42.635C33.33 46.02 30.555 48.765 27.13 48.765ZM47.285 48.765C43.86 48.765 41.085 46.015 41.085 42.635C41.085 39.25 43.86 36.505 47.285 36.505C50.71 36.505 53.485 39.25 53.485 42.635C53.485 46.02 50.71 48.765 47.285 48.765ZM67.44 48.765C64.015 48.765 61.24 46.015 61.24 42.635C61.24 39.25 64.015 36.505 67.44 36.505C70.865 36.505 73.64 39.25 73.64 42.635C73.64 46.02 70.865 48.765 67.44 48.765Z" fill="#246BFD"/>
</svg>
