<svg width="578" height="520" viewBox="0 0 578 520" fill="none" xmlns="http://www.w3.org/2000/svg">
<g filter="url(#filter0_d_229_59)">
<g clip-path="url(#clip0_229_59)">
<path d="M568.999 195.675C568.795 195.675 568.596 195.612 568.428 195.496L291.87 2.89208C291.028 2.30868 290.028 1.9969 289.004 1.99865C287.98 2.0004 286.981 2.31558 286.141 2.90185L11.5743 195.494C11.3571 195.646 11.0883 195.706 10.8271 195.66C10.5658 195.614 10.3334 195.466 10.1811 195.249C10.0288 195.032 9.96896 194.763 10.0148 194.502C10.0607 194.241 10.2084 194.008 10.4256 193.856L284.993 1.26415C286.168 0.443505 287.567 0.00236562 289.001 9.48758e-06C290.434 -0.00234665 291.834 0.434189 293.013 1.25097L569.571 193.854C569.746 193.976 569.877 194.15 569.946 194.352C570.015 194.553 570.018 194.771 569.954 194.974C569.89 195.178 569.763 195.355 569.591 195.481C569.42 195.607 569.212 195.675 568.999 195.675L568.999 195.675Z" fill="#3F3D56"/>
<path d="M27.264 202.502L289.276 8.31897L553.276 216.319L302.776 364.819L166.776 333.819L27.264 202.502Z" fill="#E6E6E6"/>
<path d="M178.255 456.541H48.8152C48.0203 456.542 47.2331 456.386 46.4985 456.083C45.7639 455.78 45.0964 455.334 44.534 454.773C43.9716 454.211 43.5255 453.544 43.2211 452.81C42.9167 452.075 42.76 451.288 42.76 450.494C42.76 449.699 42.9167 448.912 43.2211 448.178C43.5255 447.443 43.9716 446.776 44.534 446.215C45.0964 445.653 45.7639 445.208 46.4985 444.904C47.2331 444.601 48.0203 444.445 48.8152 444.446H178.255C179.05 444.445 179.837 444.601 180.572 444.904C181.307 445.208 181.974 445.653 182.537 446.215C183.099 446.776 183.545 447.443 183.85 448.178C184.154 448.912 184.311 449.699 184.311 450.494C184.311 451.288 184.154 452.075 183.85 452.81C183.545 453.544 183.099 454.211 182.537 454.773C181.974 455.334 181.307 455.78 180.572 456.083C179.837 456.386 179.05 456.542 178.255 456.541V456.541Z" fill="#246BFD"/>
<path d="M95.2555 430.541H48.8152C48.0203 430.542 47.2331 430.386 46.4985 430.083C45.7639 429.78 45.0964 429.334 44.534 428.773C43.9716 428.211 43.5255 427.544 43.2211 426.81C42.9167 426.075 42.76 425.288 42.76 424.494C42.76 423.699 42.9167 422.912 43.2211 422.178C43.5255 421.443 43.9716 420.776 44.534 420.215C45.0964 419.653 45.7639 419.208 46.4985 418.904C47.2331 418.601 48.0203 418.445 48.8152 418.446H95.2555C96.0503 418.445 96.8375 418.601 97.5721 418.904C98.3067 419.208 98.9742 419.653 99.5366 420.215C100.099 420.776 100.545 421.443 100.85 422.178C101.154 422.912 101.311 423.699 101.311 424.494C101.311 425.288 101.154 426.075 100.85 426.81C100.545 427.544 100.099 428.211 99.5366 428.773C98.9742 429.334 98.3067 429.78 97.5721 430.083C96.8375 430.386 96.0503 430.542 95.2555 430.541Z" fill="#246BFD"/>
<path d="M292.96 310.66C291.976 310.661 291.002 310.47 290.091 310.098L128.5 243.049V33.1747C128.502 31.3188 129.241 29.5396 130.553 28.2273C131.865 26.915 133.644 26.1768 135.5 26.1747H445.5C447.356 26.1768 449.135 26.915 450.448 28.2273C451.76 29.5396 452.498 31.3188 452.5 33.1747V243.195L452.197 243.325L295.916 310.065C294.98 310.458 293.975 310.66 292.96 310.66Z" fill="white"/>
<path d="M292.96 311.159C291.911 311.16 290.872 310.957 289.901 310.56L128 243.383V33.1746C128.002 31.1861 128.793 29.2798 130.199 27.8737C131.605 26.4677 133.512 25.6768 135.5 25.6746H445.5C447.489 25.6768 449.395 26.4677 450.801 27.8737C452.207 29.2798 452.998 31.1861 453 33.1746V243.525L296.113 310.524C295.115 310.944 294.043 311.16 292.96 311.159V311.159ZM130 242.047L290.663 308.711C292.162 309.319 293.84 309.309 295.331 308.683L451 242.205V33.1746C450.999 31.7164 450.419 30.3185 449.387 29.2874C448.356 28.2563 446.958 27.6763 445.5 27.6746H135.5C134.042 27.6763 132.644 28.2563 131.613 29.2874C130.582 30.3185 130.002 31.7164 130 33.1746L130 242.047Z" fill="#3F3D56"/>
<path d="M567 193.675H566.8L452 242.695L294.93 309.765C294.316 310.023 293.658 310.158 292.992 310.161C292.326 310.165 291.666 310.037 291.05 309.785L129 242.555L11.3799 193.755L11.2002 193.675H11C9.14412 193.677 7.36483 194.415 6.05252 195.727C4.74021 197.04 4.00206 198.819 4 200.675V504.675C4.00206 506.531 4.74021 508.31 6.05252 509.622C7.36483 510.935 9.14412 511.673 11 511.675H567C568.856 511.673 570.635 510.935 571.947 509.622C573.26 508.31 573.998 506.531 574 504.675V200.675C573.998 198.819 573.26 197.04 571.947 195.727C570.635 194.415 568.856 193.677 567 193.675V193.675ZM572 504.675C571.999 506.001 571.473 507.272 570.535 508.21C569.597 509.147 568.326 509.674 567 509.675H11C9.67408 509.674 8.40262 509.147 7.46506 508.21C6.52749 507.272 6.00053 506.001 6 504.675V200.675C6.00181 199.382 6.50336 198.14 7.39978 197.208C8.2962 196.276 9.5181 195.727 10.8101 195.675L129 244.715L290.28 311.635C292.026 312.345 293.982 312.334 295.72 311.605L452 244.865L567.2 195.675C568.49 195.73 569.708 196.281 570.602 197.213C571.496 198.144 571.997 199.384 572 200.675V504.675Z" fill="#3F3D56"/>
<path d="M273.066 219C269.018 219.008 265.078 217.697 261.839 215.266L261.638 215.115L219.359 182.703C217.401 181.201 215.758 179.327 214.523 177.189C213.288 175.051 212.486 172.691 212.162 170.242C211.839 167.794 212 165.305 212.637 162.919C213.273 160.533 214.373 158.296 215.873 156.335C217.374 154.375 219.245 152.729 221.38 151.493C223.516 150.256 225.873 149.453 228.319 149.129C230.764 148.805 233.249 148.966 235.632 149.604C238.015 150.241 240.25 151.343 242.208 152.845L269.593 173.87L334.309 89.3636C335.809 87.4036 337.681 85.7588 339.817 84.5231C341.953 83.2874 344.311 82.485 346.756 82.1617C349.202 81.8385 351.687 82.0008 354.07 82.6392C356.453 83.2777 358.686 84.3798 360.644 85.8828L360.242 86.4298L360.654 85.8907C364.603 88.9293 367.186 93.4121 367.838 98.3556C368.49 103.299 367.157 108.3 364.131 112.26L288.01 211.66C286.249 213.951 283.985 215.804 281.394 217.077C278.802 218.35 275.952 219.008 273.066 219V219Z" fill="#246BFD"/>
</g>
</g>
<defs>
<filter id="filter0_d_229_59" x="0" y="0" width="578" height="519.675" filterUnits="userSpaceOnUse" color-interpolation-filters="sRGB">
<feFlood flood-opacity="0" result="BackgroundImageFix"/>
<feColorMatrix in="SourceAlpha" type="matrix" values="0 0 0 0 0 0 0 0 0 0 0 0 0 0 0 0 0 0 127 0" result="hardAlpha"/>
<feOffset dy="4"/>
<feGaussianBlur stdDeviation="2"/>
<feComposite in2="hardAlpha" operator="out"/>
<feColorMatrix type="matrix" values="0 0 0 0 0 0 0 0 0 0 0 0 0 0 0 0 0 0 0.25 0"/>
<feBlend mode="normal" in2="BackgroundImageFix" result="effect1_dropShadow_229_59"/>
<feBlend mode="normal" in="SourceGraphic" in2="effect1_dropShadow_229_59" result="shape"/>
</filter>
<clipPath id="clip0_229_59">
<rect width="570" height="511.675" fill="white" transform="translate(4)"/>
</clipPath>
</defs>
</svg>
